<?xml version="1.0" encoding="UTF-8"?>
<svg version="1.1" xmlns="http://www.w3.org/2000/svg" width="76" height="43">
<path d="M0 0 C14 0 28 0 42 0 C41.67 1.65 41.34 3.3 41 5 C39.02 5 37.04 5 35 5 C35 5.99 35 6.98 35 8 C36.32 8 37.64 8 39 8 C38.25 10.4375 38.25 10.4375 37 13 C34.9375 13.6875 34.9375 13.6875 33 14 C32.67 14.66 32.34 15.32 32 16 C37.67894742 17.52965197 41.81420438 16.24145945 47.25 14.5625 C48.85878821 14.08266364 50.46813815 13.60470535 52.078125 13.12890625 C52.78356445 12.91306885 53.48900391 12.69723145 54.21582031 12.47485352 C56 12 56 12 58 12 C58 12.66 58 13.32 58 14 C49.0653469 18.06376448 40.10900623 22.07647651 31.1350708 26.0526123 C29.00911465 26.99595559 26.88511629 27.94360786 24.76123047 28.89160156 C21.30784064 30.4297622 17.84478367 31.9441017 14.3742981 33.44326782 C13.0551947 34.01677265 11.7390713 34.59718757 10.42623901 35.18490601 C2.75346627 38.61241298 -4.44811886 41.500297 -13 40 C-16.25 38.0625 -16.25 38.0625 -18 35 C-19.11203744 28.06366645 -15.40681408 22.70120737 -11.7890625 17.08984375 C-11.19867187 16.40019531 -10.60828125 15.71054687 -10 15 C-9.01 15 -8.02 15 -7 15 C-7.33 15.66 -7.66 16.32 -8 17 C-8.23434712 18.9129402 -8.23434712 18.9129402 -8.25 21 C-8.27578125 21.70125 -8.3015625 22.4025 -8.328125 23.125 C-8.21984375 23.74375 -8.1115625 24.3625 -8 25 C-3.59146579 27.93902281 -0.07223499 26.87909437 5 26 C7.9106518 25.27897804 10.78092035 24.48458654 13.65234375 23.62109375 C16 23 16 23 19 23 C18.505 21.515 18.505 21.515 18 20 C17.67 20.66 17.34 21.32 17 22 C11.39 22 5.78 22 0 22 C-0.33 21.34 -0.66 20.68 -1 20 C-1.33 20.66 -1.66 21.32 -2 22 C-3.98 22 -5.96 22 -8 22 C-5.92957946 14.39162534 -3.14169523 7.2271408 0 0 Z M24 1 C25 3 25 3 25 3 Z M26.4375 7.0625 C24.29252105 9.95355858 24.80234228 12.50804693 25 16 C27.18975773 12.71536341 27.99806563 9.79303725 29 6 C27.82289991 5.90628166 27.82289991 5.90628166 26.4375 7.0625 Z " fill="#040404" transform="translate(18,1)"/>
</svg>
